<?xml version="1.0" encoding="utf-8"?>
<!-- Generator: Adobe Illustrator 25.0.0, SVG Export Plug-In . SVG Version: 6.00 Build 0)  -->
<svg version="1.1" id="Layer_1" xmlns="http://www.w3.org/2000/svg" xmlns:xlink="http://www.w3.org/1999/xlink" x="0px" y="0px"
	 viewBox="0 0 512 512" style="enable-background:new 0 0 512 512;" xml:space="preserve">
<style type="text/css">
	.st0{fill:#00FF85;}
	.st1{fill:#05E273;}
</style>
<g>
	<path class="st0" d="M57.3,368c1.4-0.1,2.8-0.2,4.3-0.2c51.3,0,102.5,0,153.8,0c2.8,0,5.3,0.1,7.1,2.8c1.1,1.7,3.2,1.9,5.3,1.9
		c18.7,0,37.4,0,56.2,0c2.2,0,4.3-0.4,5.5-2.2c1.5-2.1,3.4-2.4,5.7-2.4c51.5,0,103,0.1,154.5,0c3.7,0,5.3,1.1,4.8,4.9
		c-0.2,1.3,0,2.6,0,3.9c-0.1,4.8-1.7,6.4-6.6,6.5c-3.9,0.1-7.7,0-11.6,0c-123.4,0-246.8,0-370.3,0c-3.1,0-6.3,0.2-8.5-2.6
		C57.3,376.2,57.3,372.1,57.3,368z"/>
	<path class="st1" d="M412.7,128.3c-52.3,0-104.6,0-156.9,0c-52.4,0-104.9,0-157.3,0c-11.5,0-15.9,4.4-15.9,16v199.1
		c0,11.7,4.5,16.2,16.1,16.2c104.6,0,209.2,0,313.8,0c11.4,0,16-4.6,16-15.9c0-66.5,0-133,0-199.5
		C428.7,132.6,424.3,128.3,412.7,128.3z M417.4,342.6c0,5.7,0,5.7-5.9,5.7c-103.9,0-207.9,0-311.8,0c-5.8,0-5.8,0-5.8-5.8V145
		c0-5.5,0-5.5,5.7-5.5h311.8c6,0,6,0,6,6C417.4,211.2,417.4,276.9,417.4,342.6z"/>
	<polygon class="st0" points="226.4,216.1 236.2,225.3 236.2,259.7 226.4,259.7 	"/>
	<polygon class="st0" points="227.9,262.9 236.2,262.9 236.2,270.7 	"/>
	<polygon class="st0" points="272.2,223 238.4,223 228.8,214 272.2,214 	"/>
	<rect x="239.3" y="226.2" class="st0" width="32.8" height="33.5"/>
	<polygon class="st0" points="273.1,262.9 282.7,271.9 239.3,271.9 239.3,262.9 	"/>
	<polygon class="st0" points="283.6,223 275.4,223 275.4,215.2 	"/>
	<polygon class="st0" points="275.4,226.2 285.1,226.2 285.1,269.8 275.4,260.6 	"/>
	<g>
		<polygon class="st0" points="136.9,308.3 132.6,312.3 136.9,312.3 		"/>
		<polygon class="st0" points="129,158.1 129,162.8 146.3,162.8 151.2,158.1 		"/>
		<polygon class="st0" points="123.6,187.9 145.8,187.9 145.8,183.2 128.5,183.2 		"/>
		<rect x="129" y="164.4" class="st0" width="16.9" height="17.2"/>
		<polygon class="st0" points="147.5,181.6 152.5,181.6 152.5,159.2 147.5,163.9 		"/>
		<polygon class="st0" points="147.5,187.2 151.7,183.2 147.5,183.2 		"/>
		<polygon class="st0" points="127.4,164.4 122.4,164.4 122.4,186.8 127.4,182.1 		"/>
		<polygon class="st0" points="127.4,158.8 123.1,162.8 127.4,162.8 		"/>
		<rect x="138.5" y="314" class="st0" width="16.9" height="17.2"/>
		<path class="st0" d="M411.4,139.5H99.6c-5.6,0-5.7,0-5.7,5.5v197.6c0,5.7,0,5.8,5.8,5.8c103.9,0,207.9,0,311.8,0
			c5.8,0,5.9,0,5.9-5.7c0-65.7,0-131.5,0-197.2C417.4,139.5,417.4,139.5,411.4,139.5z M214,210.9c0.4-0.8,1.3-1.1,2.1-0.7l4.2,2
			c0.8,0.4,1.1,1.3,0.7,2.1c-0.3,0.5-0.8,0.9-1.4,0.9c-0.2,0-0.5,0-0.7-0.2l-4.2-2C213.9,212.6,213.6,211.7,214,210.9z M205.6,206.9
			c0.4-0.8,1.3-1.1,2.1-0.7l4.2,2c0.8,0.4,1.1,1.3,0.7,2.1c-0.3,0.5-0.8,0.9-1.4,0.9c-0.2,0-0.5-0.1-0.7-0.2l-4.2-2
			C205.6,208.6,205.3,207.7,205.6,206.9z M197.3,202.9c0.4-0.8,1.3-1.1,2.1-0.7l4.2,2c0.8,0.4,1.1,1.3,0.7,2.1
			c-0.3,0.5-0.8,0.9-1.4,0.9c-0.2,0-0.5,0-0.7-0.1l-4.2-2C197.2,204.6,196.9,203.6,197.3,202.9z M188.9,198.8
			c0.4-0.8,1.3-1.1,2.1-0.7l4.2,2c0.8,0.4,1.1,1.3,0.7,2.1c-0.3,0.5-0.8,0.9-1.4,0.9c-0.2,0-0.4,0-0.7-0.2l-4.2-2
			C188.9,200.5,188.5,199.6,188.9,198.8z M180.6,194.8c0.4-0.8,1.3-1.1,2.1-0.7l4.2,2c0.8,0.4,1.1,1.3,0.7,2.1
			c-0.3,0.5-0.8,0.9-1.4,0.9c-0.2,0-0.5,0-0.7-0.2l-4.2-2C180.5,196.5,180.2,195.6,180.6,194.8z M172.2,190.8
			c0.4-0.8,1.3-1.1,2.1-0.7l4.2,2c0.8,0.4,1.1,1.3,0.7,2.1c-0.3,0.5-0.8,0.9-1.4,0.9c-0.2,0-0.5,0-0.7-0.2l-4.2-2
			C172.2,192.4,171.8,191.5,172.2,190.8z M158.1,183.9c0.4-0.8,1.3-1.1,2.1-0.7l1.6,0.8c0.8,0.4,1.1,1.3,0.7,2.1
			c-0.3,0.6-0.8,0.9-1.4,0.9c-0.2,0-0.5,0-0.7-0.2l-1.6-0.8C158.1,185.6,157.7,184.7,158.1,183.9z M120.7,162.8L120.7,162.8l6.6-6.2
			v0h26.7v26.7h0l-6.6,6.2v0h-26.7V162.8z M163.6,332.8L163.6,332.8L157,339v0h-26.7l0-26.7h0l6.6-6.2v0h26.7V332.8z M163.8,186.7
			c0.4-0.8,1.3-1.1,2.1-0.7l4.2,2c0.8,0.4,1.1,1.3,0.7,2.1c-0.3,0.6-0.8,0.9-1.4,0.9c-0.2,0-0.5,0-0.7-0.2l-4.2-2
			C163.8,188.4,163.5,187.5,163.8,186.7z M172.2,305.8l-1.6,0.7c-0.2,0.1-0.4,0.1-0.6,0.1c-0.6,0-1.2-0.3-1.4-0.9
			c-0.4-0.8,0-1.7,0.8-2.1l1.6-0.7c0.8-0.3,1.7,0,2,0.8S173,305.4,172.2,305.8z M180.7,302l-4.2,1.9c-0.2,0.1-0.4,0.1-0.6,0.1
			c-0.6,0-1.2-0.3-1.4-0.9c-0.4-0.8,0-1.7,0.8-2l4.2-1.9c0.8-0.3,1.7,0,2,0.8C181.8,300.7,181.5,301.7,180.7,302z M189.2,298.2
			l-4.2,1.9c-0.2,0.1-0.4,0.1-0.6,0.1c-0.6,0-1.2-0.3-1.4-0.9c-0.4-0.8,0-1.7,0.8-2l4.2-1.9c0.8-0.3,1.7,0,2,0.8
			C190.3,296.9,190,297.9,189.2,298.2z M197.7,294.4l-4.2,1.9c-0.2,0.1-0.4,0.1-0.6,0.1c-0.6,0-1.2-0.3-1.4-0.9
			c-0.3-0.8,0-1.7,0.8-2l4.2-1.9c0.8-0.3,1.7,0,2,0.8C198.8,293.2,198.4,294.1,197.7,294.4z M206.1,290.6l-4.2,1.9
			c-0.2,0.1-0.4,0.1-0.6,0.1c-0.6,0-1.1-0.3-1.4-0.9c-0.4-0.8,0-1.7,0.8-2.1l4.2-1.9c0.8-0.4,1.7,0,2,0.8
			C207.3,289.4,206.9,290.3,206.1,290.6z M214.6,286.9l-4.2,1.9c-0.2,0.1-0.4,0.1-0.6,0.1c-0.6,0-1.2-0.3-1.4-0.9
			c-0.4-0.8,0-1.7,0.8-2l4.2-1.9c0.8-0.4,1.7,0,2.1,0.8C215.7,285.6,215.4,286.5,214.6,286.9z M223.1,283.1l-4.2,1.9
			c-0.2,0.1-0.4,0.1-0.6,0.1c-0.6,0-1.1-0.3-1.4-0.9c-0.4-0.8,0-1.7,0.8-2l4.2-1.9c0.8-0.3,1.7,0,2,0.8
			C224.2,281.8,223.9,282.7,223.1,283.1z M231.6,279.3l-4.2,1.9c-0.2,0.1-0.4,0.1-0.6,0.1c-0.6,0-1.2-0.3-1.4-0.9
			c-0.4-0.8,0-1.7,0.8-2l4.2-1.9c0.8-0.3,1.7,0,2,0.8C232.7,278,232.3,278.9,231.6,279.3z M288.3,275.1h-52.1V275l-12.8-12.2h-0.1
			v-52.1h52.1v0.1l12.8,12.2h0.1V275.1z M290.6,224.6c-0.4-0.8-0.1-1.7,0.7-2.1l4.2-2c0.8-0.4,1.7,0,2.1,0.7c0.4,0.8,0,1.7-0.7,2.1
			l-4.2,2c-0.2,0.1-0.4,0.2-0.7,0.2C291.4,225.5,290.8,225.2,290.6,224.6z M298.6,279c-0.3,0.6-0.8,0.9-1.4,0.9
			c-0.2,0-0.4,0-0.6-0.1l-4.2-1.9c-0.8-0.3-1.1-1.3-0.8-2.1c0.4-0.8,1.3-1.1,2-0.8l4.2,1.9C298.6,277.3,298.9,278.2,298.6,279z
			 M298.9,220.6c-0.4-0.8-0.1-1.7,0.7-2.1l4.2-2c0.8-0.4,1.7,0,2.1,0.7c0.4,0.8,0.1,1.7-0.7,2.1l-4.2,2c-0.2,0.1-0.4,0.2-0.7,0.2
			C299.8,221.5,299.2,221.1,298.9,220.6z M307,282.8c-0.2,0.6-0.8,0.9-1.4,0.9c-0.2,0-0.4,0-0.6-0.1l-4.2-1.9
			c-0.8-0.3-1.1-1.3-0.8-2c0.4-0.8,1.3-1.1,2.1-0.8l4.2,1.9C307,281.1,307.4,282,307,282.8z M307.3,216.6c-0.4-0.8,0-1.7,0.7-2.1
			l4.2-2c0.8-0.4,1.7,0,2.1,0.7s0.1,1.7-0.7,2.1l-4.2,2c-0.2,0.1-0.4,0.2-0.7,0.2C308.1,217.4,307.6,217.1,307.3,216.6z
			 M315.5,286.6c-0.3,0.6-0.8,0.9-1.4,0.9c-0.2,0-0.4,0-0.6-0.1l-4.2-1.9c-0.8-0.3-1.1-1.3-0.8-2c0.3-0.8,1.3-1.1,2-0.8l4.2,1.9
			C315.5,284.9,315.9,285.8,315.5,286.6z M315.6,212.5c-0.4-0.8,0-1.7,0.7-2.1l4.2-2c0.8-0.4,1.7,0,2.1,0.7c0.4,0.8,0,1.7-0.7,2.1
			l-4.2,2c-0.2,0.1-0.4,0.2-0.7,0.2C316.5,213.4,315.9,213.1,315.6,212.5z M324,290.4c-0.2,0.6-0.8,0.9-1.4,0.9
			c-0.2,0-0.4-0.1-0.6-0.1l-4.2-1.9c-0.8-0.4-1.1-1.3-0.8-2.1s1.3-1.1,2-0.8l4.2,1.9C324,288.7,324.3,289.6,324,290.4z M324,208.5
			c-0.4-0.8,0-1.7,0.7-2.1l4.2-2c0.8-0.4,1.7-0.1,2.1,0.7c0.4,0.8,0,1.7-0.7,2.1l-4.2,2c-0.2,0.1-0.5,0.2-0.7,0.2
			C324.8,209.4,324.3,209,324,208.5z M332.5,294.2c-0.3,0.6-0.8,0.9-1.4,0.9c-0.2,0-0.4,0-0.6-0.1l-4.2-1.9c-0.8-0.3-1.1-1.3-0.8-2
			s1.3-1.1,2-0.8l4.2,1.9C332.5,292.5,332.8,293.4,332.5,294.2z M332.4,204.4c-0.4-0.8-0.1-1.7,0.7-2.1l4.2-2c0.8-0.4,1.7,0,2.1,0.7
			c0.4,0.8,0,1.7-0.7,2.1l-4.2,2c-0.2,0.1-0.4,0.2-0.7,0.2C333.2,205.3,332.6,205,332.4,204.4z M340.9,297.9
			c-0.3,0.6-0.8,0.9-1.4,0.9c-0.2,0-0.4,0-0.6-0.1l-4.2-1.9c-0.8-0.4-1.1-1.3-0.8-2c0.3-0.8,1.3-1.1,2-0.8l4.2,1.9
			C340.9,296.3,341.3,297.2,340.9,297.9z M340.7,200.4c-0.4-0.8-0.1-1.7,0.7-2.1l4.2-2c0.8-0.4,1.7,0,2.1,0.7c0.4,0.8,0,1.7-0.7,2.1
			l-4.2,2c-0.2,0.1-0.4,0.2-0.7,0.2C341.5,201.3,341,201,340.7,200.4z M349.4,301.7c-0.3,0.6-0.8,0.9-1.4,0.9
			c-0.2,0-0.4-0.1-0.6-0.1l-4.2-1.9c-0.8-0.3-1.1-1.3-0.8-2c0.4-0.8,1.3-1.1,2-0.8l4.2,1.9C349.4,300,349.8,301,349.4,301.7z
			 M349.1,196.4c-0.4-0.8,0-1.7,0.7-2.1l1.6-0.8c0.8-0.4,1.7,0,2.1,0.7c0.4,0.8,0.1,1.7-0.7,2.1l-1.6,0.8c-0.2,0.1-0.4,0.1-0.7,0.1
			C349.9,197.2,349.3,196.9,349.1,196.4z M355.2,304.3c-0.2,0.6-0.8,0.9-1.4,0.9c-0.2,0-0.4-0.1-0.6-0.1l-1.6-0.7
			c-0.8-0.3-1.1-1.3-0.8-2c0.4-0.8,1.3-1.1,2.1-0.8l1.6,0.7C355.2,302.6,355.6,303.6,355.2,304.3z M350,185.1L350,185.1l0-26.7h26.7
			v0l6.6,6.2h0v26.7h-26.7v0L350,185.1z M393.6,338.1h-26.7v0l-6.6-6.2h0v-26.7H387v0l6.6,6.2h0V338.1z"/>
		<polygon class="st0" points="155.3,337.4 155.3,332.8 138,332.8 133.1,337.4 		"/>
		<polygon class="st0" points="160.7,307.7 138.5,307.7 138.5,312.3 155.8,312.3 		"/>
		<polygon class="st0" points="136.9,314 131.9,314 131.9,336.4 136.9,331.6 		"/>
		<polygon class="st0" points="157,336.8 161.2,332.8 157,332.8 		"/>
		<polygon class="st0" points="157,331.2 162,331.2 162,308.8 157,313.5 		"/>
		<polygon class="st0" points="356.6,165.8 351.6,161.1 351.6,183.5 356.6,183.5 		"/>
		<polygon class="st0" points="387,307.4 387,311.4 391.2,311.4 		"/>
		<polygon class="st0" points="376.7,160.6 376.7,164.6 380.9,164.6 		"/>
		<polygon class="st0" points="385.4,306.7 363.1,306.7 368,311.4 385.4,311.4 		"/>
		<polygon class="st0" points="361.9,330.2 366.9,330.2 366.9,312.6 361.9,307.8 		"/>
		<polygon class="st0" points="387,330.7 392,335.4 392,313 387,313 		"/>
		<polygon class="st0" points="368.5,331.9 368.5,336.5 390.8,336.5 385.9,331.9 		"/>
		<rect x="368.5" y="313" class="st0" width="16.9" height="17.2"/>
		<polygon class="st0" points="366.9,335.9 366.9,331.9 362.7,331.9 		"/>
		<polygon class="st0" points="375,164.6 375,160 352.8,160 357.7,164.6 		"/>
		<rect x="358.2" y="166.3" class="st0" width="16.9" height="17.2"/>
		<polygon class="st0" points="358.2,189.7 380.4,189.7 375.5,185.1 358.2,185.1 		"/>
		<polygon class="st0" points="381.7,166.3 376.7,166.3 376.7,183.9 381.7,188.7 		"/>
		<polygon class="st0" points="356.6,185.1 352.3,185.1 356.6,189.1 		"/>
	</g>
</g>
</svg>
