<?xml version="1.0" encoding="utf-8"?>
<!-- Generator: Adobe Illustrator 25.0.0, SVG Export Plug-In . SVG Version: 6.00 Build 0)  -->
<svg version="1.1" id="Layer_1" xmlns="http://www.w3.org/2000/svg" xmlns:xlink="http://www.w3.org/1999/xlink" x="0px" y="0px"
	 viewBox="0 0 512 512" style="enable-background:new 0 0 512 512;" xml:space="preserve">
<style type="text/css">
	.st0{fill:#6AC6B7;}
</style>
<g>
	<g>
		<path class="st0" d="M57.3,368c1.4-0.1,2.8-0.2,4.3-0.2c51.3,0,102.5,0,153.8,0c2.8,0,5.3,0.1,7.1,2.8c1.1,1.7,3.2,1.9,5.3,1.9
			c18.7,0,37.4,0,56.2,0c2.2,0,4.3-0.4,5.5-2.2c1.5-2.1,3.4-2.4,5.7-2.4c51.5,0,103,0.1,154.5,0c3.7,0,5.3,1.1,4.8,4.9
			c-0.2,1.3,0,2.6,0,3.9c-0.1,4.8-1.7,6.4-6.6,6.5c-3.9,0.1-7.7,0-11.6,0c-123.4,0-246.8,0-370.3,0c-3.1,0-6.3,0.2-8.5-2.6
			C57.3,376.2,57.3,372.1,57.3,368z"/>
		<path class="st0" d="M255.8,128.3c52.3,0,104.6,0,156.9,0c11.5,0,15.9,4.4,15.9,15.9c0,66.5,0,133,0,199.5
			c0,11.3-4.6,15.9-16,15.9c-104.6,0-209.2,0-313.8,0c-11.6,0-16.1-4.5-16.1-16.2c0-66.4,0-132.8,0-199.1c0-11.6,4.4-16,15.9-16
			C151,128.3,203.4,128.3,255.8,128.3z M256.1,139.5c-52.2,0-104.3,0-156.5,0c-5.6,0-5.7,0-5.7,5.5c0,65.9,0,131.7,0,197.6
			c0,5.7,0,5.8,5.8,5.8c103.9,0,207.9,0,311.8,0c5.8,0,5.9,0,5.9-5.7c0-65.7,0-131.4,0-197.2c0-5.9,0-6-6-6
			C359.6,139.5,307.9,139.5,256.1,139.5z"/>
		<g>
			<path class="st0" d="M290.2,221.4l-13.7-13v-0.1l-55.5,0l0,55.5h0.1l13.7,13v0.1l55.5,0L290.2,221.4L290.2,221.4z M276.5,261.4
				l0-36.7l10.4,0l0,46.5L276.5,261.4z M224.4,214l10.4,9.8l0,36.7l-10.4,0L224.4,214z M285.3,221.4l-8.8,0l0-8.3L285.3,221.4z
				 M273.2,221.4l-36,0l-10.2-9.7l46.2,0L273.2,221.4z M273.2,224.8l0,35.7l-35,0l0-35.7L273.2,224.8z M226,263.9l8.8,0l0,8.3
				L226,263.9z M238.2,263.9l36,0l10.2,9.7l-46.2,0L238.2,263.9z"/>
			<path class="st0" d="M391.5,159.2l-7-6.7v0l-28.5,0l0,28.5h0l7,6.7v0l28.5,0L391.5,159.2L391.5,159.2z M384.5,179.7l0-18.8h5.3
				l0,23.9L384.5,179.7z M357.7,155.4l5.3,5l0,18.8l-5.3,0L357.7,155.4z M389,159.2l-4.5,0l0-4.3L389,159.2z M382.8,159.2l-18.5,0
				l-5.2-5l23.7,0L382.8,159.2z M382.8,160.9l0,18.3l-18,0l0-18.3L382.8,160.9z M358.6,181h4.5l0,4.3L358.6,181z M364.8,181l18.5,0
				l5.2,5l-23.7,0L364.8,181z"/>
			<path class="st0" d="M402.5,315.6l-7-6.7v0l-28.5,0l0,28.5h0l7,6.7v0l28.5,0L402.5,315.6L402.5,315.6z M395.5,336.1l0-18.8l5.3,0
				l0,23.9L395.5,336.1z M368.7,311.8l5.3,5l0,18.8l-5.3,0L368.7,311.8z M400,315.6l-4.5,0l0-4.3L400,315.6z M393.8,315.6l-18.5,0
				l-5.2-5l23.7,0L393.8,315.6z M393.8,317.3l0,18.3l-18,0l0-18.3L393.8,317.3z M369.6,337.4l4.5,0l0,4.3L369.6,337.4z M375.8,337.4
				l18.5,0l5.2,5l-23.7,0L375.8,337.4z"/>
			<g>
				<path class="st0" d="M294.2,224c-0.6,0-1.2-0.3-1.5-0.9c-0.4-0.8-0.1-1.8,0.8-2.2l4.5-2.2c0.8-0.4,1.8-0.1,2.2,0.8
					c0.4,0.8,0.1,1.8-0.8,2.2l-4.5,2.2C294.7,224,294.5,224,294.2,224z M303.2,219.7c-0.6,0-1.2-0.3-1.5-0.9
					c-0.4-0.8-0.1-1.8,0.8-2.2l4.5-2.2c0.8-0.4,1.8-0.1,2.2,0.8c0.4,0.8,0.1,1.8-0.8,2.2l-4.5,2.2
					C303.6,219.7,303.4,219.7,303.2,219.7z M312.1,215.4c-0.6,0-1.2-0.3-1.5-0.9c-0.4-0.8-0.1-1.8,0.8-2.2l4.5-2.2
					c0.8-0.4,1.8-0.1,2.2,0.8c0.4,0.8,0.1,1.8-0.8,2.2l-4.5,2.2C312.5,215.4,312.3,215.4,312.1,215.4z M321,211.1
					c-0.6,0-1.2-0.3-1.5-0.9c-0.4-0.8-0.1-1.8,0.8-2.2l4.5-2.2c0.8-0.4,1.8-0.1,2.2,0.8c0.4,0.8,0.1,1.8-0.8,2.2l-4.5,2.2
					C321.4,211.1,321.2,211.1,321,211.1z M329.9,206.8c-0.6,0-1.2-0.3-1.5-0.9c-0.4-0.8-0.1-1.8,0.8-2.2l4.5-2.2
					c0.8-0.4,1.8-0.1,2.2,0.8c0.4,0.8,0.1,1.8-0.8,2.2l-4.5,2.2C330.4,206.8,330.1,206.8,329.9,206.8z M338.8,202.5
					c-0.6,0-1.2-0.3-1.5-0.9c-0.4-0.8-0.1-1.8,0.8-2.2l4.5-2.2c0.8-0.4,1.8-0.1,2.2,0.8c0.4,0.8,0.1,1.8-0.8,2.2l-4.5,2.2
					C339.3,202.5,339,202.5,338.8,202.5z M347.7,198.2c-0.6,0-1.2-0.3-1.5-0.9c-0.4-0.8-0.1-1.8,0.8-2.2l4.5-2.2
					c0.8-0.4,1.8-0.1,2.2,0.8c0.4,0.8,0.1,1.8-0.8,2.2l-4.5,2.2C348.2,198.2,347.9,198.2,347.7,198.2z M356.6,193.9
					c-0.6,0-1.2-0.3-1.5-0.9c-0.4-0.8-0.1-1.8,0.8-2.2l1.7-0.8c0.8-0.4,1.8-0.1,2.2,0.8c0.4,0.8,0.1,1.8-0.8,2.2l-1.7,0.8
					C357.1,193.9,356.8,193.9,356.6,193.9z"/>
			</g>
			<g>
				<path class="st0" d="M360.1,309c-0.2,0-0.5,0-0.7-0.1l-1.7-0.8c-0.8-0.4-1.2-1.3-0.8-2.2c0.4-0.8,1.3-1.2,2.2-0.8l1.7,0.8
					c0.8,0.4,1.2,1.3,0.8,2.2C361.4,308.7,360.8,309,360.1,309z M353.9,306.2c-0.2,0-0.5,0-0.7-0.1l-4.5-2c-0.8-0.4-1.2-1.3-0.8-2.2
					c0.4-0.8,1.3-1.2,2.2-0.8l4.5,2c0.8,0.4,1.2,1.3,0.8,2.2C355.2,305.9,354.6,306.2,353.9,306.2z M344.9,302.2
					c-0.2,0-0.5,0-0.7-0.1l-4.5-2c-0.8-0.4-1.2-1.3-0.8-2.2c0.4-0.8,1.3-1.2,2.2-0.8l4.5,2c0.8,0.4,1.2,1.3,0.8,2.2
					C346.1,301.9,345.5,302.2,344.9,302.2z M335.9,298.2c-0.2,0-0.5,0-0.7-0.1l-4.5-2c-0.8-0.4-1.2-1.3-0.8-2.2
					c0.4-0.8,1.3-1.2,2.2-0.8l4.5,2c0.8,0.4,1.2,1.3,0.8,2.2C337.1,297.8,336.5,298.2,335.9,298.2z M326.9,294.1
					c-0.2,0-0.5,0-0.7-0.1l-4.5-2c-0.8-0.4-1.2-1.3-0.8-2.2c0.4-0.8,1.3-1.2,2.2-0.8l4.5,2c0.8,0.4,1.2,1.3,0.8,2.2
					C328.1,293.8,327.5,294.1,326.9,294.1z M317.8,290.1c-0.2,0-0.5,0-0.7-0.1l-4.5-2c-0.8-0.4-1.2-1.3-0.8-2.2
					c0.4-0.8,1.3-1.2,2.2-0.8l4.5,2c0.8,0.4,1.2,1.3,0.8,2.2C319.1,289.7,318.5,290.1,317.8,290.1z M308.8,286.1
					c-0.2,0-0.5,0-0.7-0.1l-4.5-2c-0.8-0.4-1.2-1.3-0.8-2.2c0.4-0.8,1.3-1.2,2.2-0.8l4.5,2c0.8,0.4,1.2,1.3,0.8,2.2
					C310,285.7,309.4,286.1,308.8,286.1z M299.8,282c-0.2,0-0.5,0-0.7-0.1l-4.5-2c-0.8-0.4-1.2-1.3-0.8-2.2c0.4-0.8,1.3-1.2,2.2-0.8
					l4.5,2c0.8,0.4,1.2,1.3,0.8,2.2C301,281.7,300.4,282,299.8,282z"/>
			</g>
			<path class="st0" d="M111.8,157.2l0,28.5l28.5,0v0l7-6.7h0l0-28.5l-28.5,0v0L111.8,157.2L111.8,157.2z M113.5,182.8l0-23.9h5.3
				l0,18.8L113.5,182.8z M145.6,177.2l-5.3,0l0-18.8l5.3-5L145.6,177.2z M118.8,152.9l0,4.3l-4.5,0L118.8,152.9z M120.6,152.2
				l23.7,0l-5.2,5l-18.5,0L120.6,152.2z M138.5,158.9l0,18.3l-18,0l0-18.3L138.5,158.9z M140.3,183.2l0-4.3h4.5L140.3,183.2z
				 M138.5,183.9l-23.7,0l5.2-5l18.5,0L138.5,183.9z"/>
			<path class="st0" d="M121.9,316.6l0,28.5l28.5,0v0l7-6.7h0l0-28.5l-28.5,0v0L121.9,316.6L121.9,316.6z M123.6,342.2l0-23.9l5.3,0
				l0,18.8L123.6,342.2z M155.7,336.6l-5.3,0l0-18.8l5.3-5L155.7,336.6z M129,312.3l0,4.3l-4.5,0L129,312.3z M130.7,311.6l23.7,0
				l-5.2,5l-18.5,0L130.7,311.6z M148.7,318.3l0,18.3l-18,0l0-18.3L148.7,318.3z M150.4,342.6l0-4.3l4.5,0L150.4,342.6z
				 M148.7,343.3l-23.7,0l5.2-5l18.5,0L148.7,343.3z"/>
			<g>
				<path class="st0" d="M217.1,213c-0.2,0-0.5-0.1-0.7-0.2l-4.5-2.2c-0.8-0.4-1.2-1.4-0.8-2.2c0.4-0.8,1.4-1.2,2.2-0.8l4.5,2.2
					c0.8,0.4,1.2,1.4,0.8,2.2C218.3,212.7,217.7,213,217.1,213z M208.2,208.7c-0.2,0-0.5-0.1-0.7-0.2l-4.5-2.2
					c-0.8-0.4-1.2-1.4-0.8-2.2c0.4-0.8,1.4-1.2,2.2-0.8l4.5,2.2c0.8,0.4,1.2,1.4,0.8,2.2C209.4,208.4,208.8,208.7,208.2,208.7z
					 M199.3,204.4c-0.2,0-0.5-0.1-0.7-0.2l-4.5-2.2c-0.8-0.4-1.2-1.4-0.8-2.2c0.4-0.8,1.4-1.2,2.2-0.8l4.5,2.2
					c0.8,0.4,1.2,1.4,0.8,2.2C200.5,204.1,199.9,204.4,199.3,204.4z M190.4,200.1c-0.2,0-0.5-0.1-0.7-0.2l-4.5-2.2
					c-0.8-0.4-1.2-1.4-0.8-2.2c0.4-0.8,1.4-1.2,2.2-0.8l4.5,2.2c0.8,0.4,1.2,1.4,0.8,2.2C191.6,199.8,191,200.1,190.4,200.1z
					 M181.5,195.8c-0.2,0-0.5-0.1-0.7-0.2l-4.5-2.2c-0.8-0.4-1.2-1.4-0.8-2.2c0.4-0.8,1.4-1.2,2.2-0.8l4.5,2.2
					c0.8,0.4,1.2,1.4,0.8,2.2C182.7,195.5,182.1,195.8,181.5,195.8z M172.6,191.5c-0.2,0-0.5-0.1-0.7-0.2l-4.5-2.2
					c-0.8-0.4-1.2-1.4-0.8-2.2c0.4-0.8,1.4-1.2,2.2-0.8l4.5,2.2c0.8,0.4,1.2,1.4,0.8,2.2C173.8,191.2,173.2,191.5,172.6,191.5z
					 M163.7,187.2c-0.2,0-0.5-0.1-0.7-0.2l-4.5-2.2c-0.8-0.4-1.2-1.4-0.8-2.2c0.4-0.8,1.4-1.2,2.2-0.8l4.5,2.2
					c0.8,0.4,1.2,1.4,0.8,2.2C164.9,186.9,164.3,187.2,163.7,187.2z M154.7,182.9c-0.2,0-0.5-0.1-0.7-0.2l-1.7-0.8
					c-0.8-0.4-1.2-1.4-0.8-2.2c0.4-0.8,1.4-1.2,2.2-0.8l1.7,0.8c0.8,0.4,1.2,1.4,0.8,2.2C156,182.6,155.4,182.9,154.7,182.9z"/>
			</g>
			<g>
				<path class="st0" d="M164.3,310.5c-0.6,0-1.2-0.4-1.5-1c-0.4-0.8,0-1.8,0.8-2.2l1.7-0.8c0.8-0.4,1.8,0,2.2,0.8
					c0.4,0.8,0,1.8-0.8,2.2l-1.7,0.8C164.8,310.4,164.5,310.5,164.3,310.5z M170.5,307.7c-0.6,0-1.2-0.4-1.5-1
					c-0.4-0.8,0-1.8,0.8-2.2l4.5-2c0.8-0.4,1.8,0,2.2,0.8c0.4,0.8,0,1.8-0.8,2.2l-4.5,2C171,307.7,170.7,307.7,170.5,307.7z
					 M179.5,303.7c-0.6,0-1.2-0.4-1.5-1c-0.4-0.8,0-1.8,0.8-2.2l4.5-2c0.8-0.4,1.8,0,2.2,0.8c0.4,0.8,0,1.8-0.8,2.2l-4.5,2
					C180,303.6,179.8,303.7,179.5,303.7z M188.6,299.6c-0.6,0-1.2-0.4-1.5-1c-0.4-0.8,0-1.8,0.8-2.2l4.5-2c0.8-0.4,1.8,0,2.2,0.8
					c0.4,0.8,0,1.8-0.8,2.2l-4.5,2C189,299.6,188.8,299.6,188.6,299.6z M197.6,295.6c-0.6,0-1.2-0.4-1.5-1c-0.4-0.8,0-1.8,0.8-2.2
					l4.5-2c0.8-0.4,1.8,0,2.2,0.8c0.4,0.8,0,1.8-0.8,2.2l-4.5,2C198.1,295.6,197.8,295.6,197.6,295.6z M206.6,291.6
					c-0.6,0-1.2-0.4-1.5-1c-0.4-0.8,0-1.8,0.8-2.2l4.5-2c0.8-0.4,1.8,0,2.2,0.8c0.4,0.8,0,1.8-0.8,2.2l-4.5,2
					C207.1,291.5,206.9,291.6,206.6,291.6z M215.7,287.5c-0.6,0-1.2-0.4-1.5-1c-0.4-0.8,0-1.8,0.8-2.2l4.5-2c0.8-0.4,1.8,0,2.2,0.8
					c0.4,0.8,0,1.8-0.8,2.2l-4.5,2C216.1,287.5,215.9,287.5,215.7,287.5z M224.7,283.5c-0.6,0-1.2-0.4-1.5-1c-0.4-0.8,0-1.8,0.8-2.2
					l4.5-2c0.8-0.4,1.8,0,2.2,0.8c0.4,0.8,0,1.8-0.8,2.2l-4.5,2C225.2,283.5,224.9,283.5,224.7,283.5z"/>
			</g>
		</g>
	</g>
</g>
</svg>
